ply
format ascii 1.0
element vertex 53
property float32 x
property float32 y
property float32 z
element face 1
property list uchar uint vertex_indices
end_header
0.696 1.5 0
0.736 1.47125748502994 0
0.752 1.420958083832335 0
0.688 1.3922155688622755 0
0.616 1.3634730538922155 0
0.616 1.3134730538922155 0
0.648 1.2772455089820358 0
0.672 1.219760479041916 0
0.696 1.1838323353293414 0
0.728 1.1479041916167665 0
0.776 1.1047904191616766 0
0.8 1.0616766467065868 0
0.832 1.0257485029940119 0
0.872 0.9898203592814371 0
0.928 0.9610778443113772 0
0.96 0.9083820359281437 0
0.965332 0.8317365269461078 0
0.96 0.7646694610778443 0
0.954668 0.6640706586826347 0
0.938668 0.6017964071856288 0
0.938668 0.5347293413173653 0
0.922668 0.44371257485029947 0
0.906668 0.37664550898203597 0
0.885332 0.2760467065868264 0
0.864 0.19461197604790414 0
0.842668 0.10838443113772445 0
0.816 0.04610658682634727 0
0.8 -0.001796407185628679 0
0.784 -0.059281437125748404 0
0.730668 -0.13592694610778433 0
0.698668 -0.24131856287425157 0
0.661332 -0.3179640718562875 0
0.624 -0.38023832335329333 0
0.592 -0.45209461077844315 0
0.570668 -0.5047904191616768 0
0.544 -0.5526934131736527 0
0.512 -0.6017964071856285 0
0.472 -0.6520958083832333 0
0.44 -0.7023952095808381 0
0.416 -0.7455089820359282 0
0.384 -0.8101796407185629 0
0.424 -0.8461077844311378 0
0.456 -0.8892215568862274 0
0.424 -0.9395209580838322 0
0.376 -0.9538922155688621 0
0.392 -0.9970059880239521 0
0.424 -1.0616766467065868 0
0.488 -1.1335329341317366 0
0.536 -1.2125748502994012 0
0.632 -1.2772455089820358 0
0.696 -1.3419161676646705 0
0.76 -1.4065868263473056 0
0.8 -1.5 0
3 0 1 2
